#N canvas 827 239 527 327 12;
#X obj 213 129 adc~;
#X obj 213 289 dac~;
#X obj 213 209 *~;
#X obj 267 209 *~;
#X obj 329 89 r gain @hv_param 0 2 0.5;
#X msg 329 125 \$1 100;
#X obj 329 154 line~;
#X connect 0 0 2 0;
#X connect 0 1 3 0;
#X connect 2 0 1 0;
#X connect 3 0 1 1;
#X connect 4 0 5 0;
#X connect 5 0 6 0;
#X connect 6 0 2 1;
#X connect 6 0 3 1;
